<svg width="26" height="26" viewBox="0 0 26 26" fill="none" xmlns="http://www.w3.org/2000/svg">
<path d="M4.0625 4.875C2.72632 4.875 1.625 5.97632 1.625 7.3125V18.6875C1.625 20.0237 2.72632 21.125 4.0625 21.125H21.9375C23.2737 21.125 24.375 20.0237 24.375 18.6875V7.3125C24.375 5.97632 23.2737 4.875 21.9375 4.875H4.0625ZM4.0625 6.5H21.9375C22.3977 6.5 22.75 6.8523 22.75 7.3125V18.6875C22.75 19.1477 22.3977 19.5 21.9375 19.5H4.0625C3.6023 19.5 3.25 19.1477 3.25 18.6875V7.3125C3.25 6.8523 3.6023 6.5 4.0625 6.5ZM8.9375 8.125C7.15063 8.125 5.6875 9.58813 5.6875 11.375C5.6875 12.2795 6.07471 13.0952 6.67773 13.6855C5.59546 14.4187 4.875 15.666 4.875 17.0625H6.5C6.5 15.7073 7.58228 14.625 8.9375 14.625C10.2927 14.625 11.375 15.7073 11.375 17.0625H13C13 15.666 12.2795 14.4187 11.1973 13.6855C11.8003 13.0952 12.1875 12.2795 12.1875 11.375C12.1875 9.58813 10.7244 8.125 8.9375 8.125ZM14.625 8.9375V10.5625H21.125V8.9375H14.625ZM8.9375 9.75C9.84521 9.75 10.5625 10.4673 10.5625 11.375C10.5625 12.2827 9.84521 13 8.9375 13C8.02979 13 7.3125 12.2827 7.3125 11.375C7.3125 10.4673 8.02979 9.75 8.9375 9.75ZM14.625 12.1875V13.8125H21.125V12.1875H14.625ZM14.625 15.4375V17.0625H18.6875V15.4375H14.625Z" fill="#14165F"/>
</svg>
