<svg width="213" height="50" viewBox="0 0 213 50" fill="none" xmlns="http://www.w3.org/2000/svg">
<g clip-path="url(#clip0_2116_29756)">
<path d="M31.4989 40.3323V38.4203H20.5559V46.6216H31.4989V44.7096H22.997V43.2665H31.2704V41.6912H22.997V40.3323H31.4989Z" fill="black"/>
<path d="M42.514 38.4203V43.964L35.4671 38.4203H32.6772V46.6216H35.1185V40.9817L42.2254 46.6216H44.9551V38.4203H42.514Z" fill="black"/>
<path d="M57.1969 40.3323V38.4203H46.2539V46.6216H57.1969V44.7096H48.695V43.2665H56.9685V41.6912H48.695V40.3323H57.1969Z" fill="black"/>
<mask id="mask0_2116_29756" style="mask-type:luminance" maskUnits="userSpaceOnUse" x="0" y="17" width="213" height="51">
<path d="M0 17.8645H212.999V67.1776H0V17.8645Z" fill="white"/>
</mask>
<g mask="url(#mask0_2116_29756)">
<path d="M60.8167 42.4128V40.5128H66.3483C66.7572 40.5128 67.0497 40.581 67.2262 40.7173C67.4026 40.8535 67.4907 41.1061 67.4907 41.4748C67.4907 41.8116 67.4026 42.052 67.2262 42.1964C67.0497 42.3407 66.7572 42.4128 66.3483 42.4128H60.8167ZM66.6009 44.1084L67.13 44.0964C67.7392 44.0483 68.2583 43.918 68.6872 43.7055C69.1162 43.4931 69.4449 43.1865 69.6733 42.7856C69.9019 42.3847 70.016 41.8837 70.016 41.2824C70.016 40.7453 69.9339 40.2924 69.7696 39.9235C69.6051 39.5548 69.3707 39.2622 69.066 39.0457C68.7614 38.8294 68.3986 38.6709 67.9778 38.5707C67.5569 38.4705 67.0939 38.4205 66.5888 38.4205H58.3755V46.6217H60.8167V44.2406H63.9313L66.8774 46.6217H69.9439L67.2502 44.5052L66.6009 44.1084Z" fill="black"/>
<path d="M80.2135 44.4211C79.9089 44.4611 79.5801 44.5012 79.2274 44.5414C78.8746 44.5814 78.5158 44.6135 78.1511 44.6375C77.7863 44.6616 77.4196 44.6736 77.0509 44.6736C76.2731 44.6736 75.6338 44.6315 75.1328 44.5473C74.6317 44.4631 74.239 44.3329 73.9543 44.1565C73.6697 43.9801 73.4713 43.7577 73.359 43.4891C73.2468 43.2205 73.1907 42.9018 73.1907 42.5331C73.1907 42.1562 73.2468 41.8356 73.359 41.5711C73.4713 41.3065 73.6697 41.0861 73.9543 40.9097C74.239 40.7333 74.6317 40.603 75.1328 40.5189C75.6338 40.4347 76.2731 40.3925 77.0509 40.3925C77.6921 40.3925 78.3255 40.4246 78.9508 40.4888C79.5761 40.5529 80.1734 40.6311 80.7426 40.7233C81.3117 40.8155 81.8289 40.9097 82.2939 41.0058L82.7388 38.9737C82.2017 38.8453 81.6284 38.731 81.0192 38.6309C80.4098 38.5307 79.7866 38.4505 79.1492 38.3904C78.5119 38.3303 77.8725 38.3002 77.2312 38.3002C76.0447 38.3002 75.0406 38.3924 74.2188 38.5768C73.3971 38.7611 72.7297 39.0317 72.2166 39.3885C71.7035 39.7452 71.3308 40.1862 71.0983 40.7112C70.8658 41.2364 70.7495 41.8436 70.7495 42.5331C70.7495 43.2226 70.8658 43.8298 71.0983 44.355C71.3308 44.88 71.7035 45.321 72.2166 45.6777C72.7297 46.0345 73.3971 46.3051 74.2188 46.4894C75.0406 46.6738 76.0447 46.766 77.2312 46.766C77.8725 46.766 78.5119 46.7359 79.1492 46.6757C79.7866 46.6157 80.4098 46.5355 81.0192 46.4352C81.6284 46.335 82.2017 46.2209 82.7388 46.0925V42.4249H80.2135V44.4211Z" fill="black"/>
<path d="M93.6818 38.4205L90.0021 41.7394L86.3223 38.4205H83.1958L88.7514 43.5793V46.6217H91.1925V43.5914L96.7603 38.4205H93.6818Z" fill="black"/>
<path d="M131.223 38.4205L126.329 44.6134L121.422 38.4205H118.452V46.6217H120.893V41.3185L125.066 46.6217H127.531L131.704 41.3185V46.6217H134.145V38.4205H131.223Z" fill="black"/>
<path d="M145.978 43.5252C145.842 43.8019 145.613 44.0263 145.292 44.1987C144.972 44.371 144.537 44.4972 143.988 44.5774C143.439 44.6576 142.755 44.6977 141.937 44.6977C140.839 44.6977 139.979 44.6276 139.358 44.4873C138.737 44.347 138.296 44.1165 138.035 43.7958C137.775 43.4752 137.644 43.0503 137.644 42.5212C137.644 41.9921 137.775 41.5671 138.035 41.2465C138.296 40.9257 138.737 40.6953 139.358 40.555C139.979 40.4146 140.839 40.3445 141.937 40.3445C142.755 40.3445 143.439 40.3826 143.988 40.4588C144.537 40.5349 144.972 40.6592 145.292 40.8315C145.613 41.0039 145.842 41.2284 145.978 41.505C146.114 41.7815 146.182 42.1203 146.182 42.5212C146.182 42.9139 146.114 43.2486 145.978 43.5252ZM147.962 40.104C147.489 39.4787 146.759 39.0137 145.773 38.7091C144.787 38.4045 143.509 38.2521 141.937 38.2521C140.374 38.2521 139.095 38.4045 138.101 38.7091C137.107 39.0137 136.376 39.4787 135.907 40.104C135.438 40.7293 135.203 41.5351 135.203 42.5212C135.203 43.4992 135.438 44.3028 135.907 44.9322C136.376 45.5615 137.107 46.0284 138.101 46.3332C139.095 46.6378 140.374 46.79 141.937 46.79C143.509 46.79 144.787 46.6378 145.773 46.3332C146.759 46.0284 147.489 45.5615 147.962 44.9322C148.435 44.3028 148.672 43.4992 148.672 42.5212C148.672 41.5351 148.435 40.7293 147.962 40.104Z" fill="black"/>
<path d="M149.068 38.4205V40.5128H153.939V46.6217H156.38V40.5128H161.238V38.4205H149.068Z" fill="black"/>
<path d="M162.14 46.6217H164.581V38.4205H162.14V46.6217Z" fill="black"/>
<path d="M176.414 43.5252C176.278 43.8019 176.049 44.0263 175.728 44.1987C175.408 44.371 174.973 44.4972 174.424 44.5774C173.874 44.6576 173.191 44.6977 172.373 44.6977C171.275 44.6977 170.415 44.6276 169.794 44.4873C169.173 44.347 168.732 44.1165 168.471 43.7958C168.211 43.4752 168.08 43.0503 168.08 42.5212C168.08 41.9921 168.211 41.5671 168.471 41.2465C168.732 40.9257 169.173 40.6953 169.794 40.555C170.415 40.4146 171.275 40.3445 172.373 40.3445C173.191 40.3445 173.874 40.3826 174.424 40.4588C174.973 40.5349 175.408 40.6592 175.728 40.8315C176.049 41.0039 176.278 41.2284 176.414 41.505C176.55 41.7815 176.618 42.1203 176.618 42.5212C176.618 42.9139 176.55 43.2486 176.414 43.5252ZM178.398 40.104C177.925 39.4787 177.195 39.0137 176.209 38.7091C175.223 38.4045 173.945 38.2521 172.373 38.2521C170.81 38.2521 169.531 38.4045 168.537 38.7091C167.543 39.0137 166.812 39.4787 166.343 40.104C165.874 40.7293 165.639 41.5351 165.639 42.5212C165.639 43.4992 165.874 44.3028 166.343 44.9322C166.812 45.5615 167.543 46.0284 168.537 46.3332C169.531 46.6378 170.81 46.79 172.373 46.79C173.945 46.79 175.223 46.6378 176.209 46.3332C177.195 46.0284 177.925 45.5615 178.398 44.9322C178.871 44.3028 179.107 43.4992 179.107 42.5212C179.107 41.5351 178.871 40.7293 178.398 40.104Z" fill="black"/>
<path d="M190.003 38.4205V43.9641L182.956 38.4205H180.166V46.6217H182.607V40.9819L189.714 46.6217H192.444V38.4205H190.003Z" fill="black"/>
<path d="M95.7708 46.6217L101.398 38.4205H102.515L96.8878 46.6217H95.7708Z" fill="black"/>
<path d="M109.403 46.6217L105.194 39.3367L100.195 46.6217H99.0776L104.705 38.4205H106.005L110.237 45.6667L115.209 38.4205H116.327L110.699 46.6217H109.403Z" fill="black"/>
</g>
</g>
<path d="M75.0168 6.45203e-05L57.5183 33.51H68.9425L86.4411 6.45203e-05H75.0168Z" fill="black"/>
<path d="M109.097 6.45203e-05L100.226 16.9892V6.45203e-05H89.2522L71.7537 33.51H82.2762L91.5987 16.5209V33.51H100.226H100.769L109.64 16.5209V33.51H120.521V6.45203e-05H109.097Z" fill="black"/>
<path d="M49.2588 22.2447L47.8811 24.883H38.943L38.9452 24.8821L52.1497 17.9422L53.7389 14.8988L41.7259 8.62707H56.3698L54.4839 12.2382H65.9082L72.299 4.35175e-05H37.8664V0.00144842L37.8657 0.00102587L31.3917 12.3989L39.7336 16.7552L25.1367 24.3775L20.3674 33.5096L20.3687 33.509L20.3681 33.51L54.7804 33.5482L60.5758 22.45L49.2588 22.2447Z" fill="black"/>
<defs>
<clipPath id="clip0_2116_29756">
<rect width="213" height="16" fill="white" transform="translate(0 34)"/>
</clipPath>
</defs>
</svg>
