<?xml version="1.0" encoding="UTF-8"?>
<svg version="1.1" xmlns="http://www.w3.org/2000/svg" width="866" height="288">
<path d="M0 0 C1.71137788 -0.02319852 3.42370006 -0.00203448 5.13432312 0.05383301 C6.08649562 0.05286873 7.03866812 0.05190445 8.01969433 0.05091095 C11.09548833 0.05687269 14.16737982 0.1177231 17.24247742 0.18078613 C19.14362216 0.19255196 21.04479277 0.20071121 22.94596863 0.2052002 C29.98660697 0.24710286 37.02669012 0.35879383 44.06669617 0.46203613 C59.80357117 0.62703613 75.54044617 0.79203613 91.75419617 0.96203613 C92.08419617 47.49203613 92.41419617 94.02203613 92.75419617 141.96203613 C98.36419617 131.07203613 103.97419617 120.18203613 109.75419617 108.96203613 C115.75419617 97.96203613 115.75419617 97.96203613 118.59403992 92.81359863 C123.02965209 84.68188371 127.2063839 76.41403147 131.42628479 68.1690979 C136.18781166 58.8710491 141.05001503 49.65011219 146.14067078 40.5267334 C148.84443994 35.66620643 151.41456803 30.76031311 153.87919617 25.77453613 C158.01959788 17.42695203 162.39441932 9.19717017 166.75419617 0.96203613 C199.75419617 0.96203613 232.75419617 0.96203613 266.75419617 0.96203613 C266.75419617 95.67203613 266.75419617 190.38203613 266.75419617 287.96203613 C235.73419617 287.96203613 204.71419617 287.96203613 172.75419617 287.96203613 C172.25919617 218.16703613 172.25919617 218.16703613 171.75419617 146.96203613 C167.46419617 155.21203613 163.17419617 163.46203613 158.75419617 171.96203613 C153.44169617 181.52453613 153.44169617 181.52453613 151.01200867 185.84875488 C148.47298899 190.41920492 146.16248975 195.09070832 143.86235046 199.7845459 C141.153175 205.26841416 138.2268012 210.61712699 135.25419617 215.96203613 C131.95148201 221.90140866 128.74378954 227.85879986 125.75419617 233.96203613 C122.33539515 240.94149713 118.61054685 247.72812646 114.83158875 254.51818848 C111.25014459 260.98238015 107.91528091 267.53390101 104.70341492 274.18859863 C104.22881584 275.07385223 104.22881584 275.07385223 103.74462891 275.97698975 C102.67599581 278.01006457 102.67599581 278.01006457 101.88717651 280.48370361 C100.53123989 283.68307445 99.34165099 285.61496517 96.75419617 287.96203613 C90.73857028 289.41723925 84.82123232 289.1289467 78.66825867 288.93859863 C77.08585624 288.9238838 75.50340512 288.91368936 73.92094421 288.90808105 C68.07294946 288.85578858 62.22599879 288.71617274 56.37919617 288.58703613 C36.76482117 288.27766113 36.76482117 288.27766113 16.75419617 287.96203613 C16.42419617 241.43203613 16.09419617 194.90203613 15.75419617 146.96203613 C5.86137009 164.38899274 5.86137009 164.38899274 -3.74580383 181.96203613 C-7.98729243 189.84944411 -12.31641257 197.67863949 -16.74580383 205.46203613 C-21.83533917 214.40562594 -26.77390972 223.42231152 -31.65644836 232.48034668 C-34.92753778 238.54369666 -38.23950415 244.57845103 -41.6398468 250.57019043 C-44.13121986 254.96490006 -46.58616689 259.37895733 -49.02705383 263.80187988 C-49.70752449 265.03326075 -50.38802603 266.26462455 -51.06855774 267.49597168 C-52.08889488 269.34233491 -53.10825278 271.18920219 -54.12440491 273.03787231 C-55.07624231 274.76928424 -56.03205223 276.49851044 -56.98799133 278.22766113 C-57.54341614 279.23603027 -58.09884094 280.24439941 -58.6710968 281.2833252 C-59.19075012 282.1672998 -59.71040344 283.05127441 -60.24580383 283.96203613 C-60.59207321 284.6679187 -60.93834259 285.37380127 -61.29510498 286.10107422 C-64.39843186 289.06164044 -67.97288985 288.48485022 -72.0316925 288.4161377 C-73.37834236 288.41701385 -73.37834236 288.41701385 -74.75219727 288.41790771 C-77.7231141 288.41511836 -80.69303077 288.38398614 -83.66377258 288.35266113 C-85.72214205 288.34520177 -87.78051861 288.3395074 -89.83889771 288.33551025 C-95.25929841 288.32022996 -100.6792711 288.2809273 -106.09950256 288.23669434 C-111.62933054 288.19579339 -117.15922761 288.1775103 -122.68916321 288.15734863 C-133.54156492 288.11443554 -144.3936488 288.04615508 -155.24580383 287.96203613 C-153.82457238 284.94074143 -152.4000867 281.92099168 -150.97505188 278.90148926 C-150.57652763 278.0541925 -150.17800339 277.20689575 -149.76740265 276.33392334 C-146.41949727 269.24663098 -142.8180835 262.34056519 -139.05830383 255.46203613 C-137.75573553 253.05875305 -136.45747288 250.65315744 -135.15986633 248.24719238 C-134.83461472 247.64484268 -134.5093631 247.04249298 -134.17425537 246.42189026 C-130.6878685 239.95203109 -127.30557787 233.42958182 -123.93330383 226.89953613 C-123.35266174 225.77619873 -122.77201965 224.65286133 -122.17378235 223.4954834 C-121.05163032 221.32426235 -119.92963548 219.15296004 -118.80781555 216.98156738 C-113.38520729 206.49910115 -107.89506869 196.06798201 -102.12080383 185.77453613 C-98.71773042 179.7044363 -95.49368976 173.57948819 -92.41621399 167.33874512 C-85.76753798 153.8791903 -78.73493244 140.61218131 -71.49580383 127.46203613 C-66.5520522 118.4760211 -61.8106326 109.39465095 -57.12080383 100.27453613 C-56.77640259 99.60491852 -56.43200134 98.9353009 -56.0771637 98.24539185 C-54.72374995 95.61347935 -53.37065359 92.98140401 -52.01799011 90.34910583 C-46.21668429 79.06379752 -40.32706173 67.84267664 -34.12080383 56.77453613 C-30.72348963 50.71442688 -27.50342851 44.60021078 -24.43159485 38.36950684 C-21.38185586 32.19471727 -18.23259901 26.07364475 -15.05830383 19.96203613 C-14.55895325 18.99435303 -14.05960266 18.02666992 -13.54512024 17.02966309 C-13.06091614 16.09984619 -12.57671204 15.1700293 -12.07783508 14.21203613 C-11.4393866 12.98227051 -11.4393866 12.98227051 -10.78804016 11.72766113 C-10.02463318 10.35867676 -10.02463318 10.35867676 -9.24580383 8.96203613 C-8.79308231 7.97790112 -8.79308231 7.97790112 -8.3312149 6.97388458 C-6.2192934 2.87177543 -4.78008499 0.49752765 0 0 Z " fill="#a2d36a" transform="translate(599.2458038330078,-0.9620361328125)"/>
<path d="M0 0 C98.67 0 197.34 0 299 0 C297.4705304 4.58840881 295.92319261 8.34972232 293.7265625 12.59375 C293.40706635 13.21318481 293.08757019 13.83261963 292.75839233 14.4708252 C291.71855138 16.48298375 290.67205906 18.49158931 289.625 20.5 C288.89442639 21.9087998 288.16395869 23.31765452 287.43359375 24.7265625 C282.92843425 33.39751823 278.3124598 42.00053793 273.58935547 50.55493164 C268.17462879 60.4089312 263.05965674 70.4176888 257.93847656 80.4263916 C253.70546461 88.66783604 249.3625397 96.82023807 245 105 C212 105 179 105 145 105 C145.81647804 101.73408782 146.66059016 99.43264622 148.14453125 96.48046875 C148.57443359 95.62259766 149.00433594 94.76472656 149.44726562 93.88085938 C149.89779297 92.99205078 150.34832031 92.10324219 150.8125 91.1875 C151.25142578 90.31029297 151.69035156 89.43308594 152.14257812 88.52929688 C154.63162578 83.58448749 157.24641971 78.81876551 160 74 C120.4 74.33 80.8 74.66 40 75 C51.31137883 81.06698864 51.31137883 81.06698864 62.73046875 86.8828125 C71.13253547 91.04994524 79.48204515 95.31688475 87.82592773 99.59912109 C90.2992765 100.86821492 92.77361946 102.13535457 95.24804688 103.40234375 C104.42867887 108.10828991 113.58245733 112.86159218 122.70210266 117.68478394 C128.09589261 120.53585312 133.51765188 123.32224642 139 126 C136.99849122 136.69452257 133.10472006 148.55509623 124.15814209 155.41156006 C114.53471877 161.80164167 103.73994714 166.40321567 93.21923828 171.09375 C88.31806408 173.28545845 83.58516337 175.73869933 78.875 178.3125 C77.45954849 179.06479081 76.04286661 179.81477096 74.625 180.5625 C73.903125 180.9440625 73.18125 181.325625 72.4375 181.71875 C67.26180468 184.4393078 62.06697058 187.12317591 56.875 189.8125 C55.74320313 190.39902344 54.61140625 190.98554688 53.4453125 191.58984375 C48.75333624 194.0209471 44.06106366 196.45147297 39.3671875 198.87890625 C35.86878403 200.68816086 32.37188877 202.50031947 28.875 204.3125 C27.25634033 205.14841675 27.25634033 205.14841675 25.60498047 206.0012207 C24.61900879 206.51257568 23.63303711 207.02393066 22.6171875 207.55078125 C21.74690918 208.00106689 20.87663086 208.45135254 19.97998047 208.9152832 C18.05935115 209.84718143 18.05935115 209.84718143 17 211 C40.43 211.33 63.86 211.66 88 212 C88.66 210.35 89.32 208.7 90 207 C90.69947641 205.58661662 91.4208443 204.18384852 92.1640625 202.79296875 C92.56367188 202.04208984 92.96328125 201.29121094 93.375 200.51757812 C93.7875 199.74865234 94.2 198.97972656 94.625 198.1875 C95.25535156 197.00510742 95.25535156 197.00510742 95.8984375 195.79882812 C96.9300009 193.86464674 97.96391172 191.93176017 99 190 C132.01357966 189.84985428 164.9950187 190.24420479 198 191 C197.40871658 194.69213617 196.38054579 197.55516229 194.62890625 200.8515625 C194.14212402 201.77557861 193.6553418 202.69959473 193.15380859 203.65161133 C192.36611084 205.12343872 192.36611084 205.12343872 191.5625 206.625 C190.75159912 208.1577356 190.75159912 208.1577356 189.92431641 209.72143555 C188.81571761 211.81637798 187.70471267 213.91004889 186.59130859 216.00244141 C185.16041343 218.69782815 183.74227596 221.3992365 182.33203125 224.10546875 C178.28640894 231.86216082 174.1568187 239.55846446 169.875 247.1875 C166.09775983 253.91899807 162.5596771 260.72886567 159.1796875 267.66796875 C155.90630206 274.17367565 152.42720319 280.57399403 149 287 C50.33 287 -48.34 287 -150 287 C-147.74963811 280.24891434 -147.74963811 280.24891434 -146.21923828 277.27148438 C-145.70633743 276.26637062 -145.70633743 276.26637062 -145.18307495 275.24095154 C-144.63225754 274.17808678 -144.63225754 274.17808678 -144.0703125 273.09375 C-143.49037033 271.96326988 -143.49037033 271.96326988 -142.89871216 270.80995178 C-141.64541886 268.37089548 -140.38551535 265.93533069 -139.125 263.5 C-138.25871887 261.8189652 -137.39250825 260.13789408 -136.52636719 258.45678711 C-131.45072792 248.62612978 -126.30914539 238.83829855 -120.91845703 229.17578125 C-120.49677246 228.4178125 -120.07508789 227.65984375 -119.640625 226.87890625 C-119.21313965 226.12440186 -118.7856543 225.36989746 -118.34521484 224.5925293 C-116.89977014 221.89921315 -116.89977014 221.89921315 -115.58056641 218.55786133 C-111.54306468 208.93904601 -106.41445198 204.80919957 -96.875 200.5625 C-95.58310634 199.94726549 -94.29342747 199.32736144 -93.00585938 198.703125 C-90.33854294 197.41435366 -87.66297658 196.14584982 -84.97949219 194.89111328 C-79.33383437 192.23252793 -73.81592836 189.33277467 -68.28979492 186.43621826 C-65.28486195 184.86437721 -62.27088599 183.31006782 -59.2578125 181.75390625 C-58.04976517 181.12914541 -56.84175738 180.50430813 -55.63378906 179.87939453 C-52.59312646 178.30670501 -49.55231955 176.73429473 -46.51145935 175.1619873 C-44.07194515 173.90060197 -41.63247794 172.63912577 -39.19302368 171.37762451 C-37.98598723 170.75344972 -36.77893576 170.12930397 -35.5718689 169.50518799 C-28.88767433 166.04898582 -22.20545175 162.58904365 -15.52734375 159.12109375 C-14.61266327 158.64623787 -14.61266327 158.64623787 -13.67950439 158.16178894 C-10.78699478 156.66013237 -7.8948458 155.15779147 -5.00341797 153.65405273 C-3.96717285 153.11594971 -2.93092773 152.57784668 -1.86328125 152.0234375 C-0.88053223 151.51264648 0.1022168 151.00185547 1.11474609 150.47558594 C4.76266168 148.60995708 8.44813519 146.82572499 12.14770508 145.06494141 C14.16383316 144.1327544 14.16383316 144.1327544 15 142 C14.12754639 141.72865234 13.25509277 141.45730469 12.35620117 141.17773438 C9.15204024 140.05335289 6.30539518 138.73049133 3.30078125 137.15625 C1.63438599 136.28818726 1.63438599 136.28818726 -0.06567383 135.40258789 C-1.27295318 134.76839946 -2.48022846 134.13420329 -3.6875 133.5 C-5.59785278 132.50281155 -7.5090534 131.50726027 -9.42027283 130.51173401 C-10.77507934 129.80588978 -12.12961673 129.09952878 -13.48390198 128.39268494 C-21.28459124 124.32304231 -29.11053878 120.30266295 -36.93692017 116.28271484 C-39.29957134 115.0691408 -41.66191929 113.85497851 -44.02416992 112.640625 C-47.68256974 110.76000735 -51.3412088 108.87985609 -55 107 C-54.42971033 103.47608025 -53.54261651 100.79573841 -51.77734375 97.69921875 C-51.32560791 96.89572998 -50.87387207 96.09224121 -50.40844727 95.2644043 C-49.92303467 94.41402588 -49.43762207 93.56364746 -48.9375 92.6875 C-45.5138147 86.58066884 -42.14855946 80.47239303 -39.0625 74.1875 C-31.62659957 59.09762056 -23.76387567 44.22084299 -15.62402344 29.49951172 C-10.25182221 19.74657063 -5.17151114 9.8728849 0 0 Z " fill="#036e95" transform="translate(150,0)"/>
<path d="M0 0 C0.7355908 0.00184359 1.4711816 0.00368717 2.22906303 0.00558662 C3.07322777 0.0028373 3.9173925 0.00008797 4.78713799 -0.00274467 C5.71502129 0.00444588 6.64290459 0.01163643 7.59890556 0.01904488 C8.57455467 0.01875282 9.55020378 0.01846077 10.55541801 0.01815987 C13.79119469 0.01955698 17.02674317 0.03513615 20.26247978 0.05078316 C22.50164476 0.05451193 24.74081137 0.05735954 26.97997856 0.0593586 C32.88193048 0.06700574 38.78378443 0.0866635 44.68569756 0.10876656 C50.70476773 0.12920173 56.72385369 0.13835533 62.74294853 0.14843941 C74.5593979 0.16990837 86.37577445 0.20405733 98.19216728 0.24609566 C89.47775241 17.70336692 89.47775241 17.70336692 85.89529228 24.69140816 C85.36205849 25.73278435 85.36205849 25.73278435 84.81805229 26.79519844 C83.69418241 28.98789915 82.56849304 31.17965554 81.44216728 33.37109566 C81.04999016 34.13466377 80.65781303 34.89823189 80.25375175 35.68493843 C75.18989895 45.53577667 70.03426102 55.3218159 64.67410088 65.01538277 C60.32593891 72.91372101 56.18931547 80.91581982 52.06716728 88.93359566 C51.72056053 89.60762428 51.37395378 90.28165291 51.0168438 90.97610664 C49.65818541 93.61863451 48.29976946 96.26128677 46.94178581 98.90416145 C41.03858688 110.38748383 34.98038125 121.78508365 28.86941338 133.15893745 C28.55268669 133.74847206 28.23596001 134.33800667 27.90963554 134.94540596 C27.26510284 136.14503539 26.62044968 137.34460011 25.97567558 138.54409981 C21.23810623 147.36229595 16.59140011 156.22321672 12.00466728 165.12109566 C6.32680208 176.13261644 0.45368278 187.02416219 -5.51193428 197.88183784 C-10.04564677 206.15321535 -14.44810304 214.47405474 -18.62033272 222.93359566 C-22.11463316 230.01819381 -25.90235009 236.91999766 -29.74069405 243.82299995 C-32.55719896 248.90966924 -35.24125551 254.02879118 -37.80783272 259.24609566 C-42.54304361 268.71651745 -47.70515485 277.96849954 -52.80783272 287.24609566 C-85.80783272 287.24609566 -118.80783272 287.24609566 -152.80783272 287.24609566 C-151.34041823 282.84385221 -149.99771348 279.47150619 -147.82345772 275.48437691 C-147.22492989 274.37892525 -146.62640205 273.27347359 -146.00973701 272.13452339 C-145.69193275 271.55242104 -145.37412849 270.97031868 -145.0466938 270.37057686 C-143.34310028 267.24892561 -141.65600736 264.11837611 -139.96798897 260.98828316 C-139.6210952 260.34574089 -139.27420143 259.70319862 -138.91679573 259.04118538 C-135.37027055 252.45940576 -131.9248915 245.82708939 -128.49533272 239.18359566 C-127.33127242 236.93099035 -126.16720997 234.67838616 -125.00314522 232.42578316 C-124.45690498 231.36842964 -123.91066475 230.31107613 -123.34787178 229.22168159 C-117.8189021 218.53888475 -112.17411571 207.9193872 -106.480196 197.32373238 C-105.83938311 196.1312003 -105.19859555 194.93865463 -104.55783272 193.74609566 C-104.2397364 193.15411385 -103.92164009 192.56213203 -103.5939045 191.95221138 C-97.05365957 179.77275584 -90.69300558 167.50391404 -84.34787178 155.22168159 C-78.48938054 143.90219979 -72.49632167 132.65615951 -66.4656086 121.42767525 C-66.14541756 120.83150398 -65.82522652 120.23533272 -65.49533272 119.62109566 C-65.17562508 119.02589119 -64.85591743 118.43068672 -64.52652168 117.81744576 C-58.32927647 106.27415452 -52.27597919 94.65884605 -46.24972725 83.02539253 C-41.37363915 73.62657998 -36.43492182 64.26148397 -31.41720772 54.93750191 C-30.17235008 52.62373532 -28.92756034 50.3099322 -27.68283272 47.99609566 C-27.37070839 47.41639015 -27.05858406 46.83668465 -26.73700142 46.23941231 C-22.87924951 39.06879011 -19.07949664 31.87160062 -15.35861397 24.62890816 C-14.99235909 23.91621773 -14.6261042 23.2035273 -14.24875069 22.46924019 C-12.46285175 18.99030907 -10.68323098 15.50830445 -8.91086006 12.02246284 C-8.26588917 10.76104474 -7.62087206 9.49965028 -6.97580147 8.23828316 C-6.12924995 6.57321724 -6.12924995 6.57321724 -5.26559639 4.87451363 C-2.77134359 0.37725593 -2.77134359 0.37725593 0 0 Z " fill="#fff" transform="translate(473.8078327178955,-0.2460956573486328)"/>
</svg>
