<svg width="213" height="50" viewBox="0 0 213 50" fill="none" xmlns="http://www.w3.org/2000/svg">
<g clip-path="url(#clip0_2087_17520)">
<path d="M31.4989 40.3323V38.4203H20.5559V46.6216H31.4989V44.7096H22.997V43.2665H31.2704V41.6912H22.997V40.3323H31.4989Z" fill="black"/>
<path d="M42.514 38.4203V43.964L35.4671 38.4203H32.6772V46.6216H35.1185V40.9817L42.2254 46.6216H44.9551V38.4203H42.514Z" fill="black"/>
<path d="M57.1969 40.3323V38.4203H46.2539V46.6216H57.1969V44.7096H48.695V43.2665H56.9685V41.6912H48.695V40.3323H57.1969Z" fill="black"/>
<mask id="mask0_2087_17520" style="mask-type:luminance" maskUnits="userSpaceOnUse" x="0" y="17" width="213" height="51">
<path d="M0 17.8644H212.999V67.1775H0V17.8644Z" fill="white"/>
</mask>
<g mask="url(#mask0_2087_17520)">
<path d="M60.8167 42.4127V40.5127H66.3483C66.7572 40.5127 67.0497 40.5808 67.2262 40.7172C67.4026 40.8534 67.4907 41.106 67.4907 41.4747C67.4907 41.8115 67.4026 42.0519 67.2262 42.1962C67.0497 42.3406 66.7572 42.4127 66.3483 42.4127H60.8167ZM66.6009 44.1082L67.13 44.0963C67.7392 44.0482 68.2583 43.9179 68.6872 43.7054C69.1162 43.493 69.4449 43.1864 69.6733 42.7855C69.9019 42.3846 70.016 41.8836 70.016 41.2823C70.016 40.7452 69.9339 40.2923 69.7696 39.9234C69.6051 39.5547 69.3707 39.262 69.066 39.0456C68.7614 38.8292 68.3986 38.6708 67.9778 38.5706C67.5569 38.4704 67.0939 38.4203 66.5888 38.4203H58.3755V46.6216H60.8167V44.2405H63.9313L66.8774 46.6216H69.9439L67.2502 44.5051L66.6009 44.1082Z" fill="black"/>
<path d="M80.2135 44.4209C79.9089 44.461 79.5801 44.5011 79.2274 44.5413C78.8746 44.5813 78.5158 44.6134 78.1511 44.6374C77.7863 44.6614 77.4196 44.6735 77.0509 44.6735C76.2731 44.6735 75.6338 44.6314 75.1328 44.5472C74.6317 44.463 74.239 44.3328 73.9543 44.1564C73.6697 43.98 73.4713 43.7576 73.359 43.489C73.2468 43.2203 73.1907 42.9017 73.1907 42.533C73.1907 42.1561 73.2468 41.8355 73.359 41.5709C73.4713 41.3064 73.6697 41.086 73.9543 40.9096C74.239 40.7331 74.6317 40.6028 75.1328 40.5188C75.6338 40.4346 76.2731 40.3924 77.0509 40.3924C77.6921 40.3924 78.3255 40.4245 78.9508 40.4887C79.5761 40.5528 80.1734 40.631 80.7426 40.7232C81.3117 40.8154 81.8289 40.9096 82.2939 41.0057L82.7388 38.9735C82.2017 38.8452 81.6284 38.7309 81.0192 38.6308C80.4098 38.5306 79.7866 38.4503 79.1492 38.3903C78.5119 38.3302 77.8725 38.3001 77.2312 38.3001C76.0447 38.3001 75.0406 38.3923 74.2188 38.5767C73.3971 38.761 72.7297 39.0316 72.2166 39.3883C71.7035 39.7451 71.3308 40.1861 71.0983 40.7111C70.8658 41.2362 70.7495 41.8435 70.7495 42.533C70.7495 43.2225 70.8658 43.8297 71.0983 44.3549C71.3308 44.8799 71.7035 45.3208 72.2166 45.6776C72.7297 46.0344 73.3971 46.3049 74.2188 46.4892C75.0406 46.6737 76.0447 46.7659 77.2312 46.7659C77.8725 46.7659 78.5119 46.7358 79.1492 46.6756C79.7866 46.6156 80.4098 46.5353 81.0192 46.4351C81.6284 46.3349 82.2017 46.2207 82.7388 46.0924V42.4247H80.2135V44.4209Z" fill="black"/>
<path d="M93.6818 38.4203L90.0021 41.7393L86.3223 38.4203H83.1958L88.7514 43.5791V46.6216H91.1925V43.5912L96.7603 38.4203H93.6818Z" fill="black"/>
<path d="M131.223 38.4203L126.329 44.6133L121.422 38.4203H118.452V46.6216H120.893V41.3184L125.066 46.6216H127.531L131.704 41.3184V46.6216H134.145V38.4203H131.223Z" fill="black"/>
<path d="M145.978 43.525C145.842 43.8016 145.613 44.0261 145.292 44.1984C144.972 44.3708 144.537 44.497 143.988 44.5771C143.439 44.6574 142.755 44.6975 141.937 44.6975C140.839 44.6975 139.979 44.6273 139.358 44.487C138.737 44.3467 138.296 44.1162 138.035 43.7956C137.775 43.4749 137.644 43.05 137.644 42.5209C137.644 41.9918 137.775 41.5669 138.035 41.2462C138.296 40.9255 138.737 40.6951 139.358 40.5548C139.979 40.4144 140.839 40.3442 141.937 40.3442C142.755 40.3442 143.439 40.3823 143.988 40.4585C144.537 40.5347 144.972 40.659 145.292 40.8313C145.613 41.0036 145.842 41.2281 145.978 41.5048C146.114 41.7812 146.182 42.12 146.182 42.5209C146.182 42.9137 146.114 43.2483 145.978 43.525ZM147.962 40.1037C147.489 39.4785 146.759 39.0135 145.773 38.7089C144.787 38.4043 143.509 38.2519 141.937 38.2519C140.374 38.2519 139.095 38.4043 138.101 38.7089C137.107 39.0135 136.376 39.4785 135.907 40.1037C135.438 40.7291 135.203 41.5348 135.203 42.5209C135.203 43.499 135.438 44.3026 135.907 44.9319C136.376 45.5612 137.107 46.0282 138.101 46.333C139.095 46.6376 140.374 46.7898 141.937 46.7898C143.509 46.7898 144.787 46.6376 145.773 46.333C146.759 46.0282 147.489 45.5612 147.962 44.9319C148.435 44.3026 148.672 43.499 148.672 42.5209C148.672 41.5348 148.435 40.7291 147.962 40.1037Z" fill="black"/>
<path d="M149.068 38.4203V40.5127H153.939V46.6216H156.38V40.5127H161.238V38.4203H149.068Z" fill="black"/>
<path d="M162.14 46.6216H164.581V38.4203H162.14V46.6216Z" fill="black"/>
<path d="M176.414 43.525C176.278 43.8016 176.049 44.0261 175.728 44.1984C175.408 44.3708 174.973 44.497 174.424 44.5771C173.874 44.6574 173.191 44.6975 172.373 44.6975C171.275 44.6975 170.415 44.6273 169.794 44.487C169.173 44.3467 168.732 44.1162 168.471 43.7956C168.211 43.4749 168.08 43.05 168.08 42.5209C168.08 41.9918 168.211 41.5669 168.471 41.2462C168.732 40.9255 169.173 40.6951 169.794 40.5548C170.415 40.4144 171.275 40.3442 172.373 40.3442C173.191 40.3442 173.874 40.3823 174.424 40.4585C174.973 40.5347 175.408 40.659 175.728 40.8313C176.049 41.0036 176.278 41.2281 176.414 41.5048C176.55 41.7812 176.618 42.12 176.618 42.5209C176.618 42.9137 176.55 43.2483 176.414 43.525ZM178.398 40.1037C177.925 39.4785 177.195 39.0135 176.209 38.7089C175.223 38.4043 173.945 38.2519 172.373 38.2519C170.81 38.2519 169.531 38.4043 168.537 38.7089C167.543 39.0135 166.812 39.4785 166.343 40.1037C165.874 40.7291 165.639 41.5348 165.639 42.5209C165.639 43.499 165.874 44.3026 166.343 44.9319C166.812 45.5612 167.543 46.0282 168.537 46.333C169.531 46.6376 170.81 46.7898 172.373 46.7898C173.945 46.7898 175.223 46.6376 176.209 46.333C177.195 46.0282 177.925 45.5612 178.398 44.9319C178.871 44.3026 179.107 43.499 179.107 42.5209C179.107 41.5348 178.871 40.7291 178.398 40.1037Z" fill="black"/>
<path d="M190.002 38.4203V43.964L182.956 38.4203H180.166V46.6216H182.607V40.9817L189.714 46.6216H192.443V38.4203H190.002Z" fill="black"/>
<path d="M95.7708 46.6216L101.398 38.4203H102.515L96.8878 46.6216H95.7708Z" fill="black"/>
<path d="M109.403 46.6216L105.194 39.3365L100.195 46.6216H99.0776L104.705 38.4203H106.005L110.237 45.6666L115.209 38.4203H116.327L110.699 46.6216H109.403Z" fill="black"/>
</g>
</g>
<path d="M111.017 6.48499e-05L93.5183 33.51H104.942L122.441 6.48499e-05H111.017Z" fill="black"/>
<path d="M145.097 6.48499e-05L136.226 16.9892V6.48499e-05H125.252L107.754 33.51H118.276L127.599 16.5209V33.51H136.226H136.769L145.64 16.5209V33.51H156.522V6.48499e-05H145.097Z" fill="black"/>
<path d="M85.2588 22.2445L83.8811 24.8828H74.943L74.9452 24.882L88.1497 17.942L89.7389 14.8986L77.7259 8.62695H92.3698L90.4839 12.2381H101.908L108.299 -8.01086e-05H73.8664V0.00132751L73.8657 0.000904083L67.3917 12.3988L75.7337 16.7551L61.1367 24.3774L56.3674 33.5094L56.3687 33.5089L56.3681 33.5099L90.7804 33.5481L96.5758 22.4499L85.2588 22.2445Z" fill="black"/>
<defs>
<clipPath id="clip0_2087_17520">
<rect width="213" height="16" fill="white" transform="translate(0 34)"/>
</clipPath>
</defs>
</svg>
