<svg width="26" height="26" viewBox="0 0 26 26" fill="none" xmlns="http://www.w3.org/2000/svg">
<path d="M4.875 3.25C3.98633 3.25 3.25 3.98633 3.25 4.875C3.25 5.76367 3.98633 6.5 4.875 6.5C5.76367 6.5 6.5 5.76367 6.5 4.875C6.5 3.98633 5.76367 3.25 4.875 3.25ZM8.125 4.0625C7.67749 4.0625 7.3125 4.42749 7.3125 4.875C7.3125 5.32251 7.67749 5.6875 8.125 5.6875C8.57251 5.6875 8.9375 5.32251 8.9375 4.875C8.9375 4.42749 8.57251 4.0625 8.125 4.0625ZM10.5625 4.0625C10.115 4.0625 9.75 4.42749 9.75 4.875C9.75 5.32251 10.115 5.6875 10.5625 5.6875C11.01 5.6875 11.375 5.32251 11.375 4.875C11.375 4.42749 11.01 4.0625 10.5625 4.0625ZM13 4.0625C12.5525 4.0625 12.1875 4.42749 12.1875 4.875C12.1875 5.32251 12.5525 5.6875 13 5.6875C13.4475 5.6875 13.8125 5.32251 13.8125 4.875C13.8125 4.42749 13.4475 4.0625 13 4.0625ZM15.4375 4.0625C14.99 4.0625 14.625 4.42749 14.625 4.875C14.625 5.32251 14.99 5.6875 15.4375 5.6875C15.885 5.6875 16.25 5.32251 16.25 4.875C16.25 4.42749 15.885 4.0625 15.4375 4.0625ZM17.875 4.0625C17.4275 4.0625 17.0625 4.42749 17.0625 4.875C17.0625 5.32251 17.4275 5.6875 17.875 5.6875C18.3225 5.6875 18.6875 5.32251 18.6875 4.875C18.6875 4.42749 18.3225 4.0625 17.875 4.0625ZM20.3125 4.0625C19.865 4.0625 19.5 4.42749 19.5 4.875C19.5 5.32251 19.865 5.6875 20.3125 5.6875C20.76 5.6875 21.125 5.32251 21.125 4.875C21.125 4.42749 20.76 4.0625 20.3125 4.0625ZM21.9375 5.6875C21.49 5.6875 21.125 6.05249 21.125 6.5C21.125 6.94751 21.49 7.3125 21.9375 7.3125C22.385 7.3125 22.75 6.94751 22.75 6.5C22.75 6.05249 22.385 5.6875 21.9375 5.6875ZM13 8.125C11.6575 8.125 10.5625 9.21997 10.5625 10.5625C10.5625 11.5781 11.8733 14.2124 12.2764 14.9963L13 16.4023L13.7236 14.9963C14.1267 14.2124 15.4375 11.5781 15.4375 10.5625C15.4375 9.21997 14.3425 8.125 13 8.125ZM21.9375 8.125C21.49 8.125 21.125 8.48999 21.125 8.9375C21.125 9.38501 21.49 9.75 21.9375 9.75C22.385 9.75 22.75 9.38501 22.75 8.9375C22.75 8.48999 22.385 8.125 21.9375 8.125ZM13 9.75C13.4475 9.75 13.8125 10.115 13.8125 10.5625C13.8125 11.01 13.4475 11.375 13 11.375C12.5525 11.375 12.1875 11.01 12.1875 10.5625C12.1875 10.115 12.5525 9.75 13 9.75ZM21.9375 10.5625C21.49 10.5625 21.125 10.9275 21.125 11.375C21.125 11.8225 21.49 12.1875 21.9375 12.1875C22.385 12.1875 22.75 11.8225 22.75 11.375C22.75 10.9275 22.385 10.5625 21.9375 10.5625ZM21.9375 13C21.49 13 21.125 13.365 21.125 13.8125C21.125 14.26 21.49 14.625 21.9375 14.625C22.385 14.625 22.75 14.26 22.75 13.8125C22.75 13.365 22.385 13 21.9375 13ZM5.6875 14.625C5.23999 14.625 4.875 14.99 4.875 15.4375C4.875 15.885 5.23999 16.25 5.6875 16.25C6.13501 16.25 6.5 15.885 6.5 15.4375C6.5 14.99 6.13501 14.625 5.6875 14.625ZM8.125 14.625C7.67749 14.625 7.3125 14.99 7.3125 15.4375C7.3125 15.885 7.67749 16.25 8.125 16.25C8.57251 16.25 8.9375 15.885 8.9375 15.4375C8.9375 14.99 8.57251 14.625 8.125 14.625ZM10.5625 14.625C10.115 14.625 9.75 14.99 9.75 15.4375C9.75 15.885 10.115 16.25 10.5625 16.25C11.01 16.25 11.375 15.885 11.375 15.4375C11.375 14.99 11.01 14.625 10.5625 14.625ZM15.4375 14.625C14.99 14.625 14.625 14.99 14.625 15.4375C14.625 15.885 14.99 16.25 15.4375 16.25C15.885 16.25 16.25 15.885 16.25 15.4375C16.25 14.99 15.885 14.625 15.4375 14.625ZM17.875 14.625C17.4275 14.625 17.0625 14.99 17.0625 15.4375C17.0625 15.885 17.4275 16.25 17.875 16.25C18.3225 16.25 18.6875 15.885 18.6875 15.4375C18.6875 14.99 18.3225 14.625 17.875 14.625ZM20.3125 14.625C19.865 14.625 19.5 14.99 19.5 15.4375C19.5 15.885 19.865 16.25 20.3125 16.25C20.76 16.25 21.125 15.885 21.125 15.4375C21.125 14.99 20.76 14.625 20.3125 14.625ZM4.0625 16.25C3.61499 16.25 3.25 16.615 3.25 17.0625C3.25 17.51 3.61499 17.875 4.0625 17.875C4.51001 17.875 4.875 17.51 4.875 17.0625C4.875 16.615 4.51001 16.25 4.0625 16.25ZM4.0625 18.6875C3.61499 18.6875 3.25 19.0525 3.25 19.5C3.25 19.9475 3.61499 20.3125 4.0625 20.3125C4.51001 20.3125 4.875 19.9475 4.875 19.5C4.875 19.0525 4.51001 18.6875 4.0625 18.6875ZM21.125 19.5C20.2363 19.5 19.5 20.2363 19.5 21.125C19.5 22.0137 20.2363 22.75 21.125 22.75C22.0137 22.75 22.75 22.0137 22.75 21.125C22.75 20.2363 22.0137 19.5 21.125 19.5ZM5.6875 20.3125C5.23999 20.3125 4.875 20.6775 4.875 21.125C4.875 21.5725 5.23999 21.9375 5.6875 21.9375C6.13501 21.9375 6.5 21.5725 6.5 21.125C6.5 20.6775 6.13501 20.3125 5.6875 20.3125ZM8.125 20.3125C7.67749 20.3125 7.3125 20.6775 7.3125 21.125C7.3125 21.5725 7.67749 21.9375 8.125 21.9375C8.57251 21.9375 8.9375 21.5725 8.9375 21.125C8.9375 20.6775 8.57251 20.3125 8.125 20.3125ZM10.5625 20.3125C10.115 20.3125 9.75 20.6775 9.75 21.125C9.75 21.5725 10.115 21.9375 10.5625 21.9375C11.01 21.9375 11.375 21.5725 11.375 21.125C11.375 20.6775 11.01 20.3125 10.5625 20.3125ZM13 20.3125C12.5525 20.3125 12.1875 20.6775 12.1875 21.125C12.1875 21.5725 12.5525 21.9375 13 21.9375C13.4475 21.9375 13.8125 21.5725 13.8125 21.125C13.8125 20.6775 13.4475 20.3125 13 20.3125ZM15.4375 20.3125C14.99 20.3125 14.625 20.6775 14.625 21.125C14.625 21.5725 14.99 21.9375 15.4375 21.9375C15.885 21.9375 16.25 21.5725 16.25 21.125C16.25 20.6775 15.885 20.3125 15.4375 20.3125ZM17.875 20.3125C17.4275 20.3125 17.0625 20.6775 17.0625 21.125C17.0625 21.5725 17.4275 21.9375 17.875 21.9375C18.3225 21.9375 18.6875 21.5725 18.6875 21.125C18.6875 20.6775 18.3225 20.3125 17.875 20.3125Z" fill="#14165F"/>
</svg>
