<svg width="26" height="26" viewBox="0 0 26 26" fill="none" xmlns="http://www.w3.org/2000/svg">
<path d="M0.8125 3.25V20.3125H3.37695C3.73877 21.709 4.99561 22.75 6.5 22.75C8.0044 22.75 9.26123 21.709 9.62305 20.3125H16.377C16.7388 21.709 17.9956 22.75 19.5 22.75C21.0044 22.75 22.2612 21.709 22.623 20.3125H25.1875V11.8574L24.959 11.6035L20.084 6.72852L19.8301 6.5H15.4375V3.25H0.8125ZM2.4375 4.875H13.8125V18.6875H9.62305C9.26123 17.291 8.0044 16.25 6.5 16.25C4.99561 16.25 3.73877 17.291 3.37695 18.6875H2.4375V4.875ZM15.4375 8.125H19.1445L23.5625 12.543V18.6875H22.623C22.2612 17.291 21.0044 16.25 19.5 16.25C17.9956 16.25 16.7388 17.291 16.377 18.6875H15.4375V8.125ZM6.5 17.875C7.40772 17.875 8.125 18.5923 8.125 19.5C8.125 20.4077 7.40772 21.125 6.5 21.125C5.59229 21.125 4.875 20.4077 4.875 19.5C4.875 18.5923 5.59229 17.875 6.5 17.875ZM19.5 17.875C20.4077 17.875 21.125 18.5923 21.125 19.5C21.125 20.4077 20.4077 21.125 19.5 21.125C18.5923 21.125 17.875 20.4077 17.875 19.5C17.875 18.5923 18.5923 17.875 19.5 17.875Z" fill="#14165F"/>
</svg>
