<svg width="18" height="19" viewBox="0 0 18 19" fill="none" xmlns="http://www.w3.org/2000/svg">
<path d="M13.5 0C11.0243 0 9 2.02425 9 4.5C9 5.244 9.28725 6.003 9.65625 6.84375C10.0253 7.6845 10.491 8.57569 10.9688 9.39844C11.9235 11.0447 12.8906 12.4219 12.8906 12.4219L13.5 13.3125L14.1094 12.4219C14.1094 12.4219 15.0758 11.0447 16.0312 9.39844C16.509 8.57494 16.9748 7.6845 17.3438 6.84375C17.7127 6.003 18 5.244 18 4.5C18 2.02425 15.9757 0 13.5 0ZM5.97656 1.45312L0 4.00781V18.3984L6.02344 15.7969L12.0234 18.0469L18 15.4922V8.95312C17.5222 9.87037 16.992 10.749 16.5 11.5312V14.5078L12.75 16.1016V14.8828L11.6484 13.2891C11.5314 13.1188 11.3933 12.9169 11.25 12.7031V16.1719L6.75 14.4844V3.32812L7.57031 3.63281C7.64381 3.12581 7.77525 2.63719 7.96875 2.17969L5.97656 1.45312ZM13.5 1.5C15.1643 1.5 16.5 2.83575 16.5 4.5C16.5 4.79025 16.3189 5.47538 15.9844 6.23438C15.6506 6.99337 15.1785 7.85419 14.7188 8.64844C14.1068 9.70294 13.8427 10.0792 13.5 10.5952C13.1573 10.0792 12.8932 9.70294 12.2812 8.64844C11.8215 7.85419 11.3501 6.99337 11.0156 6.23438C10.6819 5.47538 10.5 4.79025 10.5 4.5C10.5 2.83575 11.8357 1.5 13.5 1.5ZM5.25 3.375V14.5078L1.5 16.1016V4.99219L5.25 3.375Z" fill="white"/>
</svg>
